<svg width="64" height="64" viewBox="0 0 64 64" fill="none" xmlns="http://www.w3.org/2000/svg">
<path d="M50.6667 5.33398H24C21.0587 5.33398 18.6667 7.72598 18.6667 10.6673V26.6673H13.3333C10.392 26.6673 8 29.0593 8 32.0006V56.0006C8 56.7079 8.28095 57.3862 8.78105 57.8863C9.28115 58.3864 9.95942 58.6673 10.6667 58.6673H53.3333C54.0406 58.6673 54.7189 58.3864 55.219 57.8863C55.7191 57.3862 56 56.7079 56 56.0006V10.6673C56 7.72598 53.608 5.33398 50.6667 5.33398ZM13.3333 32.0006H29.3333V53.334H13.3333V32.0006ZM50.6667 53.334H34.6667V32.0006C34.6667 29.0593 32.2747 26.6673 29.3333 26.6673H24V10.6673H50.6667V53.334Z" fill="#254369"/>
<path d="M29.3332 16H34.6665V21.3333H29.3332V16ZM39.9998 16H45.3332V21.3333H39.9998V16ZM39.9998 26.7493H45.3332V32H39.9998V26.7493ZM39.9998 37.3333H45.3332V42.6667H39.9998V37.3333ZM18.6665 37.336H23.9998V42.6693H18.6665V37.336Z" fill="#254369"/>
</svg>
